<?xml version="1.0" encoding="UTF-8" standalone="no"?>
<!-- Created with Inkscape (http://www.inkscape.org/) -->

<svg
   width="120"
   height="120"
   viewBox="0 0 120 120"
   version="1.1"
   id="svg1"
   xmlns="http://www.w3.org/2000/svg"
   xmlns:svg="http://www.w3.org/2000/svg">
  <defs
     id="defs1" />
  <g
     id="layer1">
    <path
       d="m 33.311522,75.544402 c 0,0.8 -0.6,1.4 -1.4,1.4 -0.8,0 -1.4,-0.6 -1.4,-1.4 0,-0.8 0.6,-1.4 1.4,-1.4 0.8,0 1.4,0.7 1.4,1.4 z m -1.3,-6.5 c -0.8,0 -1.4,0.6 -1.4,1.4 0,0.8 0.6,1.4 1.4,1.4 0.8,0 1.4,-0.6 1.4,-1.4 0,-0.8 -0.7,-1.4 -1.4,-1.4 z m -0.6,-9.9 v -2.6 c 0,-0.3 -0.2,-0.4 -0.5,-0.4 h -3.2 v -3.4 c 0,-0.3 -0.3,-0.5 -0.6,-0.5 h -2.6 c -0.3,0 -0.6,0.2 -0.6,0.5 v 3.4 h -3.2 c -0.3,0 -0.5,0.2 -0.5,0.4 v 2.6 c 0,0.3 0.2,0.6 0.5,0.6 h 3.2 v 3.2 c 0,0.3 0.3,0.5 0.6,0.5 h 2.6 c 0.3,0 0.6,-0.2 0.6,-0.5 v -3.2 h 3.2 c 0.3,0 0.5,-0.3 0.5,-0.6 z m 64.300002,-5.3 c -1.6,0 -2.900002,1.3 -2.900002,2.9 0,1.6 1.300002,2.9 2.900002,2.9 1.6,0 2.9,-1.3 2.9,-2.9 0,-1.6 -1.3,-2.9 -2.9,-2.9 z m 1.1,28.8 -10.900002,2.1 c -0.9,0.2 -1.7,0.4 -2.6,0.6 -3.1,1 -12.5,3.5 -24.3,3.5 -11.8,0 -21.2,-2.6 -24.3,-3.5 -0.9,-0.3 -1.7,-0.5 -2.6,-0.6 l -10.9,-2.1 c -4.5,-1.1 -7.6,-5.3 -7.2,-10 l 2.3,-26.9 c 0,-0.1 0,-0.2 0,-0.3 l 0.3,-3.2 c 0.1,-1.4 1.2,-2.6 2.7,-2.9 l 15.8,-2.6 c 0.6,-0.1 1.2,-0.2 1.8,-0.2 h 22.1 22.2 c 0.6,0 1.2,0.1 1.8,0.2 l 15.800002,2.7 c 1.399996,0.2 2.499996,1.4 2.699996,2.9 l 0.3,3.3 c 0,0.1 0,0.2 0,0.3 l 2.2,26.7 c 0.4,4.7 -2.7,8.9 -7.199996,10 z m -7.600002,-42.7 c 3.7,1.9 7.800002,2.9 10.200002,3.4 l -0.1,-0.8 c 0,-0.5 -0.4,-0.9 -0.9,-1 z m -70.6,3.4 c 2.4,-0.5 6.5,-1.5 10.2,-3.4 l -9.2,1.6 c -0.5,0.1 -0.9,0.5 -0.9,1 z m 83.299998,29.5 -2.299996,-26.9 c 0,-0.3 -0.3,-0.6 -0.6,-0.6 -3.2,-0.6 -9.200002,-2.1 -13.800002,-5.3 -1.2,-0.9 -2.7,-1.4 -4.1,-1.4 h -22.1 -22.2 c -1.5,0 -2.9,0.5 -4.1,1.4 -4.6,3.2 -10.6,4.7 -13.7,5.3 -0.3,0.1 -0.5,0.3 -0.6,0.6 l -2.3,26.9 c -0.1,1.7 0.3,3.5 1.4,4.9 1,1.4 2.5,2.4 4.2,2.8 l 10.8,2.1 c 1,0.2 1.9,0.4 2.8,0.7 3.3,1 12.4,3.4 23.7,3.4 11.3,0 20.3,-2.4 23.7,-3.4 0.9,-0.3 1.9,-0.5 2.8,-0.7 l 10.800002,-2.1 c 1.7,-0.4 3.2,-1.4 4.199996,-2.8 1.1,-1.4 1.5,-3.2 1.4,-4.9 z m -13.399998,-26.5 c 0.5,0 1,-0.4 1,-1 0,-0.6 -0.4,-1 -1,-1 -0.6,0 -1,0.4 -1,1 0,0.6 0.5,1 1,1 z m 6.700002,26.3 -9.200002,2.2 c -0.2,0 -0.3,0.3 -0.3,0.5 0,0.2 0.3,0.3 0.5,0.3 l 9.300002,-2.2 c 0.2,0 0.3,-0.3 0.3,-0.5 -0.2,-0.2 -0.4,-0.3 -0.6,-0.3 z m 0,-5.8 -9.200002,2.2 c -0.2,0 -0.3,0.3 -0.3,0.5 0,0.2 0.3,0.3 0.5,0.3 l 9.300002,-2.2 c 0.2,0 0.3,-0.3 0.3,-0.5 -0.2,-0.2 -0.4,-0.3 -0.6,-0.3 z m 0,3.9 -9.200002,2.2 c -0.2,0 -0.3,0.3 -0.3,0.5 0,0.2 0.3,0.3 0.5,0.3 l 9.300002,-2.2 c 0.2,0 0.3,-0.3 0.3,-0.5 -0.2,-0.2 -0.4,-0.4 -0.6,-0.3 z m 0,-1.9 -9.200002,2.1 c -0.2,0 -0.3,0.3 -0.3,0.5 0,0.2 0.3,0.3 0.5,0.3 l 9.300002,-2.2 c 0.2,0 0.3,-0.3 0.3,-0.5 -0.2,-0.2 -0.4,-0.3 -0.6,-0.2 z m -7.300002,-6.4 c 1.6,0 2.9,-1.3 2.9,-2.9 0,-1.6 -1.3,-2.9 -2.9,-2.9 -1.6,0 -2.9,1.3 -2.9,2.9 0,1.6 1.3,2.9 2.9,2.9 z m -4.5,12.3 c 0.1,2.9 -1.9,5.5 -4.8,6.1 -4.7,0.9 -12.2,2 -19.5,2 -7.3,0 -14.8,-1.1 -19.5,-2 -2.9,-0.5 -4.9,-3.1 -4.8,-6.1 l 1.1,-27.6 c 0.1,-2.3 1.9,-4.2 4.3,-4.4 4.7,-0.3 12.4,-0.7 18.9,-0.7 6.5,0 14.3,0.4 19,0.7 2.3,0.1 4.2,2 4.3,4.4 z m -4.4,-27.9 c 0,-0.4 -0.3,-0.7 -0.7,-0.7 h -38.7 c -0.4,0 -0.7,0.3 -0.7,0.7 v 25.7 c 0,0.4 0.3,0.7 0.7,0.7 h 38.8 c 0.4,0 0.7,-0.3 0.7,-0.7 v -25.7 z m 16.200002,27.8 -9.200002,2.1 c -0.2,0 -0.3,0.3 -0.3,0.5 0,0.2 0.3,0.3 0.5,0.3 l 9.300002,-2.2 c 0.2,0 0.3,-0.3 0.3,-0.5 -0.2,-0.2 -0.4,-0.3 -0.6,-0.2 z"
       id="path1"
       style="fill:#4263eb;fill-opacity:1;stroke:none" />
  </g>
</svg>
